<?xml version="1.0" standalone="no"?>
<!DOCTYPE svg PUBLIC "-//W3C//DTD SVG 20010904//EN"
 "http://www.w3.org/TR/2001/REC-SVG-20010904/DTD/svg10.dtd">
<svg version="1.0" xmlns="http://www.w3.org/2000/svg"
 width="16.000000pt" height="16.000000pt" viewBox="0 0 16.000000 16.000000"
 preserveAspectRatio="xMidYMid meet">
<metadata>
Created by potrace 1.11, written by Peter Selinger 2001-2013
</metadata>
<g transform="translate(0.000000,16.000000) scale(0.002222,-0.002222)"
fill="#000000" stroke="none">
<path d="M3538 7139 c-26 -27 -45 -49 -41 -49 3 0 -14 -19 -38 -42 -24 -23
-37 -38 -29 -33 15 8 -23 -38 -68 -82 -12 -12 -22 -25 -22 -28 1 -7 -53 -79
-62 -83 -5 -2 -8 -9 -8 -16 0 -6 -9 -18 -19 -26 -11 -7 -18 -17 -15 -22 3 -4
0 -8 -5 -8 -6 0 -11 -6 -11 -14 0 -8 -9 -21 -20 -29 -11 -8 -18 -16 -15 -18 2
-3 -9 -20 -25 -37 -16 -18 -26 -32 -22 -32 4 0 -1 -7 -11 -14 -10 -8 -18 -17
-18 -20 3 -20 0 -26 -9 -21 -5 3 -10 -1 -10 -10 0 -16 -44 -82 -65 -97 -5 -4
-6 -8 -2 -8 4 0 -10 -27 -33 -59 -22 -33 -40 -65 -40 -70 0 -6 -3 -11 -7 -11
-5 0 -17 -12 -27 -27 -12 -16 -14 -23 -5 -18 11 7 11 4 -1 -11 -9 -10 -22 -31
-30 -46 -7 -16 -17 -28 -22 -28 -5 0 -7 -4 -3 -9 3 -6 -3 -14 -12 -20 -10 -6
-15 -11 -11 -11 7 0 -12 -38 -59 -121 -23 -39 -56 -101 -59 -109 -1 -3 -5 -15
-9 -27 -4 -13 -12 -23 -17 -23 -5 0 -6 -4 -3 -10 3 -5 1 -10 -4 -10 -6 0 -11
-3 -10 -7 2 -16 -14 -53 -23 -53 -5 0 -6 -4 -3 -10 3 -5 1 -10 -4 -10 -6 0
-10 -3 -10 -7 3 -21 -2 -43 -13 -55 -7 -7 -15 -22 -16 -33 -2 -11 -9 -23 -15
-27 -7 -4 -9 -8 -5 -8 4 0 3 -12 -3 -27 -27 -69 -56 -177 -63 -238 -3 -25 14
-65 27 -65 6 0 8 -3 5 -6 -4 -3 10 -21 30 -41 21 -19 31 -31 23 -27 -9 5 -12
3 -7 -4 4 -7 11 -12 16 -12 4 0 23 -14 41 -32 19 -17 27 -28 19 -24 -8 4 -6 1
5 -8 55 -42 104 -90 99 -98 -3 -5 0 -7 7 -6 7 2 13 -4 14 -12 0 -8 5 -15 12
-15 6 0 33 -20 59 -45 26 -25 63 -57 81 -71 18 -15 30 -29 26 -33 -3 -3 1 -6
10 -6 8 0 24 -10 34 -22 10 -13 32 -31 49 -40 30 -17 32 -17 55 5 13 12 27 21
31 19 5 -1 7 1 6 5 -2 5 23 35 55 67 31 33 57 56 57 52 0 -5 15 10 33 32 17
23 35 41 38 41 3 1 43 38 88 83 l83 82 -88 85 c-48 47 -87 90 -86 94 1 5 -2 6
-8 2 -6 -3 -14 3 -18 15 -4 12 -12 22 -17 23 -6 1 -9 5 -7 10 1 4 -4 6 -10 5
-7 -2 -12 3 -10 10 1 6 -2 11 -6 10 -12 -4 -112 94 -112 109 0 7 8 21 18 31 9
10 18 23 19 28 2 15 157 269 165 272 5 2 8 10 8 18 0 8 9 23 20 34 11 11 18
20 15 20 -3 0 9 23 26 50 17 28 36 50 42 50 5 0 7 3 4 6 -8 8 24 64 35 64 4 0
8 6 8 13 0 7 16 32 36 55 l36 42 21 -27 c12 -16 24 -30 27 -33 13 -13 70 -102
70 -110 0 -6 4 -10 8 -10 5 0 15 -12 23 -27 8 -16 22 -37 32 -47 9 -11 17 -26
17 -33 0 -7 5 -13 12 -13 6 0 9 -3 6 -6 -4 -3 2 -14 13 -25 11 -11 17 -25 13
-32 -4 -7 -4 -9 1 -5 7 6 65 -73 65 -88 0 -3 9 -14 20 -26 11 -12 20 -28 20
-35 0 -7 5 -13 10 -13 6 0 10 -7 10 -15 0 -8 5 -15 10 -15 6 0 10 -5 10 -10 0
-8 34 -61 73 -113 2 -4 -89 -97 -95 -97 -2 0 -87 -83 -190 -184 -103 -101
-190 -181 -193 -178 -3 3 -5 1 -5 -5 0 -6 -39 -48 -86 -94 -48 -46 -113 -110
-144 -141 -32 -31 -61 -54 -66 -50 -4 4 -4 1 0 -5 4 -8 -2 -17 -18 -24 -14 -7
-23 -16 -20 -21 3 -5 -3 -12 -15 -15 -45 -11 -33 -27 119 -163 114 -101 189
-171 214 -197 l20 -21 51 41 c27 23 55 49 62 57 7 8 13 11 13 5 0 -5 7 1 16
13 8 12 20 20 25 16 5 -3 8 -2 7 3 -2 4 0 9 4 11 4 1 18 12 30 25 13 12 52 47
88 77 96 82 154 134 162 145 4 6 8 7 8 3 0 -4 26 17 57 47 32 29 62 51 67 48
5 -3 6 -1 2 5 -4 7 -4 12 1 12 8 1 61 46 136 117 20 20 37 33 37 31 0 -3 28
21 62 53 35 31 66 55 70 53 5 -3 8 1 8 10 0 8 4 16 9 18 10 3 121 100 158 136
21 21 23 30 18 80 -10 97 -17 130 -51 240 -36 119 -75 214 -149 367 -35 71
-64 134 -63 139 0 5 -4 12 -10 15 -9 6 -87 141 -86 151 0 3 -7 13 -16 23 -8
10 -13 19 -10 20 3 1 -5 13 -17 27 -13 13 -29 36 -35 52 -7 15 -16 28 -20 28
-5 0 -8 7 -8 15 0 8 -5 15 -11 15 -5 0 -8 4 -5 9 4 5 3 11 -2 13 -14 6 -91
126 -85 132 4 3 1 6 -5 6 -7 0 -29 26 -49 58 -21 31 -48 68 -60 82 -13 14 -23
28 -23 32 0 3 -7 13 -15 22 -35 35 -83 105 -77 112 4 4 1 4 -5 0 -7 -4 -13 -4
-13 1 0 4 -20 30 -44 58 -24 27 -42 54 -39 60 4 5 3 7 -1 3 -7 -6 -46 26 -46
37 0 3 -16 19 -35 36 -19 17 -32 36 -28 42 3 5 2 7 -4 4 -5 -3 -16 3 -23 14
-20 27 -29 23 -82 -32z"/>
<path d="M5636 5978 c3 -4 1 -8 -4 -8 -5 0 -31 -21 -57 -47 -27 -26 -45 -40
-40 -32 5 8 -11 -6 -35 -31 -23 -25 -39 -39 -35 -31 4 7 -15 -9 -42 -35 -27
-27 -80 -76 -118 -109 -37 -33 -78 -70 -91 -82 -12 -12 -25 -19 -28 -16 -3 4
-6 -2 -6 -12 0 -10 -3 -16 -6 -12 -3 3 -17 -7 -31 -24 -14 -16 -30 -26 -36
-22 -7 3 -9 3 -5 -2 9 -10 -81 -91 -96 -87 -6 2 -8 1 -4 -3 8 -8 -62 -71 -74
-68 -4 2 -7 0 -5 -5 3 -10 -78 -83 -87 -77 -3 3 -4 2 -2 -1 6 -9 -167 -160
-179 -156 -5 2 -7 1 -3 -3 8 -8 -75 -85 -92 -85 -7 0 -11 -3 -7 -6 8 -8 -64
-70 -77 -66 -6 2 -8 1 -4 -3 8 -8 -72 -81 -84 -77 -5 1 -7 -2 -4 -6 3 -5 -6
-18 -20 -28 -15 -11 -36 -29 -48 -40 -11 -12 -42 -40 -68 -62 l-48 -41 62 -53
c33 -29 66 -59 72 -66 6 -7 17 -18 24 -25 7 -7 41 -38 74 -69 34 -32 65 -58
70 -58 4 0 8 -6 8 -14 0 -8 5 -18 12 -22 7 -5 8 -3 2 7 -4 8 22 -16 59 -53
l67 -68 37 33 c55 47 55 47 125 108 34 31 108 96 163 145 54 49 95 83 90 75
-5 -10 -4 -12 3 -7 7 4 12 12 12 17 0 14 72 75 84 71 6 -2 8 -1 5 3 -4 3 12
24 35 45 41 39 54 39 61 4 2 -11 4 -19 5 -19 1 0 4 -20 6 -45 12 -106 6 -200
-20 -315 -17 -74 -93 -240 -118 -256 -6 -3 -8 -8 -6 -10 6 -8 -72 -109 -84
-109 -6 0 -9 -3 -6 -6 3 -3 -4 -15 -16 -28 -11 -12 -38 -41 -59 -64 -21 -23
-43 -42 -49 -42 -6 0 -9 -3 -6 -6 3 -3 -23 -33 -59 -67 -36 -34 -78 -74 -93
-89 -15 -15 -30 -24 -34 -21 -3 4 -6 1 -6 -4 0 -10 -54 -57 -124 -108 -15 -11
-42 -32 -59 -47 -18 -15 -36 -28 -41 -28 -4 0 -22 -11 -38 -25 -16 -14 -33
-23 -38 -20 -4 3 -10 -2 -14 -10 -7 -20 -28 -19 -53 3 -12 9 -40 33 -64 52
-24 19 -53 45 -66 57 -13 12 -23 20 -23 18 0 -2 -17 12 -37 30 -37 34 -63 44
-63 26 0 -5 -9 -13 -21 -16 -11 -4 -18 -9 -16 -12 3 -2 -16 -23 -41 -46 -26
-23 -51 -48 -55 -54 -4 -7 -15 -13 -23 -13 -8 0 -12 -4 -9 -10 3 -5 2 -10 -2
-10 -5 0 -24 -15 -43 -34 -19 -19 -39 -32 -44 -29 -5 4 -6 2 -3 -4 3 -5 -3
-17 -14 -26 -10 -9 -19 -15 -19 -12 0 3 -16 -13 -36 -35 -20 -22 -41 -37 -48
-33 -6 3 -8 3 -4 -2 4 -4 0 -14 -9 -23 -14 -14 -14 -17 1 -27 9 -7 13 -15 9
-18 -3 -4 0 -7 7 -7 16 0 110 -87 102 -94 -3 -3 1 -6 9 -6 17 -1 89 -66 89
-82 0 -6 3 -8 7 -5 3 4 23 -11 45 -33 21 -23 38 -38 38 -35 0 3 8 -3 18 -12
11 -10 17 -21 15 -26 -3 -4 0 -6 5 -5 14 4 102 -78 94 -88 -4 -4 -2 -4 5 -1 6
4 23 -7 37 -24 14 -17 26 -27 26 -23 0 4 13 -6 28 -22 16 -16 42 -39 59 -51
30 -21 30 -21 72 -2 24 10 50 19 58 19 8 0 11 5 8 10 -3 5 -1 10 5 10 7 0 49
24 95 54 46 30 87 51 91 48 4 -4 4 -1 0 6 -7 11 5 17 27 13 5 -1 6 2 3 7 -2 4
13 19 35 32 21 14 39 28 39 33 0 4 4 6 9 2 6 -3 13 1 18 8 4 7 26 26 48 43 22
16 45 34 52 39 7 6 18 15 25 20 42 33 110 88 123 101 8 9 15 13 15 11 0 -3 28
21 62 53 34 32 66 56 72 53 5 -3 7 -2 5 3 -5 10 118 134 126 126 3 -3 5 0 5 6
0 6 12 23 28 39 41 42 125 143 159 190 17 23 34 39 38 35 5 -4 5 -2 2 5 -4 6
0 18 8 26 8 9 15 20 15 25 0 6 7 13 16 16 9 4 14 9 11 12 -3 4 4 23 17 43 28
45 99 191 102 211 2 8 8 16 14 18 5 2 8 7 5 11 -3 7 16 68 42 131 3 8 6 18 5
21 -1 3 6 30 14 60 18 66 25 101 48 244 6 38 17 145 22 210 4 61 4 443 -1 505
-5 76 -16 194 -21 220 -2 14 -7 45 -10 70 -2 25 -9 63 -15 85 -6 22 -13 51
-15 65 -6 42 -9 52 -39 140 -26 78 -54 138 -76 166 -5 6 -6 14 -3 17 4 3 -3 5
-14 4 -11 0 -18 -5 -16 -9z"/>
<path d="M1502 5967 c-16 -21 -86 -171 -90 -192 -1 -11 -7 -22 -12 -23 -6 -2
-7 -8 -4 -13 3 -6 1 -15 -4 -22 -10 -13 -27 -77 -24 -89 1 -5 -3 -8 -9 -8 -5
0 -8 -3 -6 -7 3 -5 -3 -42 -14 -83 -20 -82 -28 -122 -35 -188 -2 -24 -7 -60
-9 -80 -29 -209 -19 -591 21 -796 4 -17 7 -38 8 -46 1 -9 6 -21 10 -28 4 -7 6
-16 3 -18 -3 -3 1 -21 9 -40 8 -18 13 -37 12 -41 0 -5 1 -15 5 -23 28 -73 54
-160 49 -164 -3 -3 0 -6 6 -6 7 0 12 -7 12 -15 0 -8 4 -23 9 -33 28 -51 59
-122 54 -122 -4 0 2 -7 13 -16 10 -8 12 -12 4 -8 -8 5 -3 -7 13 -25 15 -18 27
-39 27 -47 0 -8 3 -14 8 -14 4 0 18 -20 31 -45 13 -25 28 -45 32 -45 5 0 9 -4
9 -10 0 -9 19 -35 48 -65 6 -8 12 -16 12 -19 0 -9 94 -108 230 -241 207 -202
253 -245 262 -245 4 0 8 -6 8 -14 0 -8 5 -18 12 -22 7 -5 8 -2 3 7 -4 8 11 -5
34 -29 22 -23 41 -40 41 -37 0 7 132 -94 148 -114 6 -8 12 -11 12 -7 0 5 6 4
13 -1 26 -22 107 -62 141 -71 47 -13 47 -10 0 78 -10 19 -17 35 -15 35 1 0 -3
14 -9 30 -25 63 -81 221 -85 237 -2 9 -9 26 -15 37 -6 12 -9 21 -6 21 2 0 -4
23 -15 51 -10 29 -16 55 -14 60 3 4 2 9 -3 11 -9 3 -65 183 -66 211 0 9 -4 17
-9 17 -5 0 -7 6 -4 14 3 7 2 17 -3 22 -8 8 -19 47 -23 84 -1 8 -15 27 -31 43
-15 15 -25 27 -22 27 3 0 -2 8 -11 18 -63 64 -193 244 -186 257 4 5 3 7 -2 3
-15 -14 -132 197 -159 289 -18 59 -24 389 -7 406 6 6 23 -4 45 -27 20 -20 41
-36 47 -36 6 0 7 -4 4 -10 -3 -5 1 -10 9 -10 8 0 18 -9 21 -21 4 -11 9 -18 12
-15 7 7 99 -76 95 -86 -1 -5 2 -7 6 -5 8 2 137 -110 224 -195 26 -26 48 -45
48 -43 0 5 64 -52 142 -126 21 -20 38 -35 38 -32 0 2 6 -2 14 -9 8 -7 12 -16
9 -21 -2 -4 0 -6 5 -5 12 4 92 -69 84 -76 -3 -3 0 -6 7 -6 7 0 18 -6 25 -12 7
-7 46 -42 86 -78 41 -36 100 -90 131 -120 32 -30 64 -56 72 -58 8 -1 26 10 39
26 13 15 31 31 41 35 9 3 17 10 17 15 0 5 50 58 110 119 61 61 110 109 110
106 0 -3 15 13 33 35 17 23 38 41 45 41 7 1 17 12 22 26 5 14 14 25 20 25 5 0
10 5 10 12 0 6 -3 9 -6 6 -3 -4 -30 18 -60 46 -30 29 -54 50 -54 47 0 -3 -16
12 -35 32 -19 20 -35 34 -35 30 0 -4 -9 3 -20 15 -12 12 -25 22 -31 22 -6 0
-8 3 -6 8 6 8 -19 33 -26 26 -3 -3 -14 6 -25 20 -11 15 -25 26 -31 26 -6 0
-10 5 -9 12 2 7 -2 12 -8 13 -6 0 -17 7 -26 15 -8 8 -41 38 -73 65 -32 28 -77
67 -99 88 -22 20 -44 37 -49 37 -4 0 -5 5 -2 10 3 6 1 10 -4 10 -15 0 -72 48
-190 160 -20 19 -41 37 -46 40 -6 3 -9 8 -8 12 2 5 0 7 -5 5 -4 -1 -18 8 -32
21 -13 12 -28 22 -32 22 -5 0 -6 5 -3 10 3 6 1 10 -5 10 -6 0 -17 6 -24 13 -8
6 -40 35 -72 62 -32 28 -70 62 -86 78 -15 15 -30 27 -32 27 -3 0 -24 18 -47
40 -23 22 -46 40 -51 40 -5 0 -6 5 -3 10 3 6 -1 10 -10 10 -10 0 -13 5 -9 12
4 6 3 8 -3 5 -6 -4 -24 8 -41 26 -17 17 -37 37 -44 42 -53 40 -76 64 -70 70 4
5 2 5 -5 2 -6 -4 -20 4 -31 18 -11 13 -22 21 -26 18 -3 -3 -6 1 -6 10 0 9 -5
19 -12 23 -7 5 -8 3 -3 -7 7 -12 -55 41 -103 88 -7 7 -18 13 -23 13 -6 0 -7 5
-4 10 3 6 2 10 -4 10 -10 0 -54 37 -137 116 -24 23 -46 39 -49 36 -3 -3 -5 2
-5 12 0 9 -4 15 -9 11 -5 -3 -18 6 -29 20 -11 13 -22 21 -26 18 -3 -3 -6 -2
-6 4 0 5 -18 24 -39 41 -29 24 -41 28 -49 19z"/>
<path d="M4054 4590 c-21 -22 -44 -39 -51 -40 -6 0 -15 -5 -19 -12 -5 -7 -2
-9 7 -3 8 4 1 -5 -16 -20 -16 -14 -50 -45 -75 -68 -24 -23 -48 -41 -53 -39 -5
1 -6 -1 -4 -5 2 -5 -17 -29 -44 -55 -27 -26 -49 -44 -49 -42 0 3 -14 -12 -32
-32 -30 -34 -31 -37 -14 -49 19 -14 200 -183 322 -301 41 -39 74 -69 74 -68 0
2 28 -24 63 -57 136 -132 218 -204 235 -204 9 -1 25 8 35 19 9 10 17 15 17 10
0 -5 4 -4 8 2 11 18 100 83 106 78 3 -2 4 -1 2 2 -5 6 72 73 120 105 13 9 21
19 17 22 -3 4 -1 7 5 7 7 0 22 11 34 25 11 13 26 22 31 18 6 -3 7 -1 3 6 -4 6
-1 14 8 17 8 3 22 17 31 30 15 24 15 26 -32 75 -48 51 -66 68 -113 109 -14 12
-19 18 -11 14 9 -5 12 -3 7 5 -4 6 -11 9 -16 6 -5 -3 -12 0 -17 7 -4 7 -31 34
-59 60 -29 26 -49 49 -46 52 3 3 -1 6 -9 6 -8 0 -42 27 -76 60 -35 32 -63 57
-63 55 0 -2 -27 23 -60 54 -33 32 -60 56 -60 54 0 -3 -21 14 -46 36 -26 23
-51 41 -56 41 -5 0 -6 5 -3 10 3 6 -1 10 -9 10 -9 0 -16 3 -16 8 0 4 -8 12
-18 19 -16 9 -25 5 -58 -27z"/>
<path d="M2450 4130 c0 -5 -7 -10 -15 -10 -8 0 -15 -5 -15 -12 0 -6 -3 -9 -6
-5 -17 17 -39 -41 -24 -60 2 -2 3 -6 5 -10 1 -5 5 -15 8 -23 4 -8 13 -41 21
-73 8 -31 18 -61 21 -66 7 -13 67 -202 69 -221 1 -9 5 -20 8 -25 5 -9 66 -193
72 -220 2 -5 8 -23 15 -38 6 -16 9 -32 6 -37 -3 -5 -1 -11 4 -14 10 -7 66
-177 63 -190 -2 -5 1 -12 5 -15 7 -5 28 -60 39 -103 1 -5 3 -10 4 -13 1 -3 4
-9 5 -15 1 -5 4 -12 5 -15 1 -3 3 -9 4 -14 0 -5 4 -13 9 -17 4 -4 7 -13 7 -20
0 -7 5 -25 11 -41 6 -15 10 -29 10 -31 -1 -1 6 -16 14 -32 9 -17 13 -35 10
-40 -3 -5 -1 -11 4 -14 5 -4 19 -37 32 -74 12 -37 31 -85 42 -107 11 -22 19
-41 18 -43 -1 -1 8 -24 20 -52 12 -27 20 -52 19 -56 -1 -4 2 -10 7 -13 12 -8
108 -204 105 -213 -1 -5 2 -8 8 -8 5 0 10 -4 10 -10 0 -5 13 -31 29 -59 16
-27 27 -52 24 -55 -4 -3 -2 -6 4 -6 6 0 16 -12 22 -27 6 -16 26 -55 45 -88 19
-33 31 -64 28 -69 -3 -5 0 -6 5 -3 8 5 25 -25 20 -36 -1 -1 7 -11 16 -22 9
-11 16 -23 15 -26 -2 -3 5 -13 15 -23 9 -10 15 -22 12 -27 -4 -5 -2 -9 2 -9 5
0 21 -24 36 -52 16 -29 39 -71 53 -93 13 -22 28 -50 34 -62 5 -11 14 -24 20
-28 5 -3 8 -11 5 -16 -4 -5 -1 -9 4 -9 6 0 11 -6 11 -14 0 -7 7 -19 15 -26 9
-7 13 -15 11 -18 -3 -2 6 -19 19 -37 14 -17 25 -36 25 -42 0 -5 9 -21 21 -34
19 -21 21 -22 30 -7 5 9 15 23 22 30 7 7 35 49 61 93 27 44 52 82 57 83 5 2 7
7 4 12 -3 5 2 16 11 24 8 9 13 16 10 16 -3 0 11 28 31 63 62 109 243 487 243
507 0 6 5 10 12 10 6 0 9 3 6 6 -5 5 13 52 62 159 19 42 43 104 80 207 32 87
36 107 24 112 -8 3 -13 11 -12 18 2 7 -1 12 -7 13 -16 1 -65 47 -59 57 3 4 -1
8 -9 8 -16 0 -58 46 -50 54 4 3 1 6 -6 6 -15 0 -67 51 -63 62 1 4 -3 7 -10 6
-7 -2 -12 4 -13 12 0 8 -5 15 -12 15 -6 0 -21 11 -32 24 -12 13 -22 21 -22 18
-8 -39 -20 -67 -30 -67 -6 0 -8 -4 -5 -9 3 -4 -15 -49 -39 -99 -25 -51 -45
-96 -45 -102 0 -5 -5 -10 -10 -10 -6 0 -9 -3 -8 -7 3 -10 -101 -215 -125 -247
-4 -6 -21 -30 -37 -53 -17 -24 -37 -43 -45 -43 -14 0 -81 92 -87 120 -2 8 -6
17 -9 20 -14 11 -68 128 -62 134 4 3 2 6 -4 6 -10 0 -23 32 -22 54 1 5 -3 12
-8 15 -17 12 -223 517 -226 554 -1 9 -5 17 -9 17 -4 0 -7 3 -6 8 0 4 -2 14 -5
22 -14 33 -81 222 -122 343 -38 114 -68 166 -94 167 -3 0 -32 25 -64 54 -32
30 -60 54 -61 53 -1 -1 -16 10 -32 25 -16 15 -45 42 -64 59 -19 18 -28 28 -20
24 9 -5 12 -4 7 1 -5 5 -12 9 -17 9 -4 0 -28 19 -53 43 -26 23 -45 42 -42 42
2 0 -20 23 -49 50 -51 48 -76 61 -76 40z"/>
<path d="M3562 4128 c2 -7 -3 -12 -9 -10 -7 1 -12 -2 -10 -7 1 -5 -1 -10 -5
-11 -4 0 -29 -22 -56 -48 -102 -97 -172 -162 -172 -159 0 2 -22 -17 -48 -42
-101 -96 -147 -136 -154 -133 -4 1 -8 -5 -8 -13 0 -8 -4 -15 -9 -15 -10 0 -9
-39 1 -55 6 -10 46 -119 53 -145 6 -21 48 -134 74 -197 11 -29 18 -53 15 -53
-3 0 2 -7 10 -16 9 -8 14 -19 11 -24 -3 -5 -2 -10 2 -12 5 -1 15 -19 25 -39 9
-20 23 -36 32 -36 8 0 13 4 10 9 -3 4 2 8 11 8 9 0 13 5 10 10 -3 6 -2 10 3
10 5 0 29 19 54 43 116 108 212 192 220 189 4 -1 7 1 6 5 -4 10 83 91 97 92 6
1 10 5 10 10 0 4 16 21 35 37 19 16 46 40 60 54 75 71 115 105 122 102 5 -1 8
3 8 9 0 6 10 19 22 28 21 18 21 18 2 44 -10 14 -29 31 -42 38 -12 7 -31 26
-42 43 -11 17 -20 27 -20 23 0 -5 -34 25 -75 66 -41 40 -75 71 -75 68 0 -3 -4
-1 -8 5 -4 6 -28 29 -54 52 -26 22 -44 43 -40 48 4 4 2 4 -5 0 -6 -3 -14 -2
-18 4 -3 5 -15 15 -26 20 -15 8 -19 8 -17 -2z"/>
<path d="M1996 3123 c1 -16 5 -41 9 -58 3 -16 10 -52 15 -80 13 -70 16 -82 34
-150 9 -33 19 -69 21 -80 11 -60 17 -81 26 -91 6 -7 11 -26 11 -43 1 -17 5
-31 10 -31 4 0 8 -6 8 -14 0 -8 11 -46 24 -85 13 -38 21 -72 18 -75 -3 -4 -1
-6 4 -6 5 0 16 -21 23 -47 8 -27 18 -53 23 -60 5 -7 7 -16 4 -22 -3 -5 -3 -11
2 -13 4 -1 20 -37 36 -78 16 -41 36 -91 45 -110 8 -19 15 -37 16 -40 1 -3 9
-21 17 -40 9 -19 14 -38 12 -42 -3 -5 -1 -8 4 -8 9 0 25 -37 23 -52 -1 -5 4
-8 9 -8 5 0 9 -3 8 -7 -2 -10 21 -62 90 -203 31 -63 55 -118 54 -122 -1 -5 2
-8 7 -8 10 0 27 -39 23 -52 -1 -5 3 -8 9 -8 5 0 7 -5 4 -10 -3 -5 -2 -10 4
-10 10 0 27 -38 23 -52 -1 -5 2 -8 8 -8 5 0 10 -5 10 -10 0 -6 11 -28 25 -50
14 -22 22 -40 18 -40 -5 0 1 -7 11 -15 11 -8 16 -15 12 -15 -5 0 -3 -7 4 -15
7 -8 10 -15 6 -15 -3 0 3 -9 14 -20 12 -12 18 -25 15 -30 -4 -6 -1 -10 4 -10
6 0 11 -7 11 -15 0 -8 3 -15 8 -15 7 0 38 -62 34 -68 -1 -1 6 -11 16 -22 10
-11 25 -33 33 -48 7 -15 31 -54 52 -86 21 -32 39 -64 40 -70 1 -6 9 -16 17
-23 8 -7 12 -13 8 -13 -4 0 -1 -8 7 -17 8 -10 14 -21 13 -24 -2 -3 4 -12 12
-21 23 -24 43 -55 41 -63 -1 -4 6 -13 16 -21 10 -7 15 -14 11 -14 -4 0 4 -12
17 -26 14 -15 25 -33 25 -40 0 -7 4 -14 8 -16 4 -1 23 -25 42 -53 19 -27 43
-60 54 -73 11 -12 17 -22 13 -22 -3 0 4 -10 16 -23 34 -36 57 -67 51 -67 -4 0
4 -9 17 -20 13 -10 20 -19 15 -20 -4 0 2 -9 15 -20 13 -10 20 -19 15 -20 -5 0
3 -9 18 -21 14 -11 24 -24 21 -29 -3 -5 0 -12 6 -16 8 -5 10 -2 5 7 -4 8 -1 5
6 -5 7 -11 49 -56 93 -100 44 -45 68 -72 55 -61 l-25 20 19 -23 c11 -12 21
-20 24 -17 3 3 13 -2 22 -10 15 -14 20 -14 46 0 16 8 27 15 24 15 -3 0 28 35
70 78 75 78 130 140 130 148 0 4 69 92 115 146 12 15 20 30 17 32 -3 3 3 8 12
12 9 3 14 10 11 14 -3 5 3 15 13 22 11 7 19 17 19 21 0 15 55 97 65 97 5 0 7
4 4 8 -3 5 4 19 15 30 11 12 17 22 14 22 -3 0 -1 6 5 13 15 18 50 72 99 157
25 41 48 77 53 78 4 2 6 8 2 13 -3 5 -1 9 4 9 6 0 12 10 16 23 3 12 16 33 28
47 13 13 22 27 20 30 -3 5 29 72 39 80 3 3 16 26 28 53 13 26 28 47 34 47 5 0
8 3 5 6 -5 5 128 278 157 324 5 8 10 17 11 20 6 31 18 60 25 60 5 0 9 3 8 8
-2 13 13 52 20 52 4 0 8 6 8 13 0 6 12 36 27 66 14 30 26 61 26 68 0 7 5 13
11 13 5 0 8 4 4 9 -3 5 2 17 11 25 8 9 12 16 8 16 -3 0 -1 7 6 15 7 8 10 15 7
15 -4 0 7 30 23 66 17 36 30 69 30 74 0 4 10 29 22 56 12 27 23 51 23 54 3 19
29 87 38 98 5 6 7 12 4 12 -4 0 2 20 13 45 11 25 19 48 19 50 0 3 11 40 25 83
14 42 33 104 42 137 22 82 44 166 49 190 3 11 7 31 10 45 4 14 8 34 9 45 2 11
6 31 9 45 7 27 15 78 23 150 l6 44 -24 -19 c-12 -11 -36 -32 -52 -47 -16 -15
-33 -25 -37 -22 -4 2 -11 -1 -15 -7 -5 -8 -3 -9 7 -4 24 14 -2 -8 -82 -68 -42
-31 -81 -57 -88 -57 -6 0 -11 -4 -11 -9 0 -5 -24 -24 -52 -42 -29 -18 -56 -38
-60 -44 -4 -5 -8 -6 -8 -2 0 4 -10 -1 -22 -12 -11 -11 -26 -18 -31 -14 -6 3
-7 2 -4 -4 4 -5 -6 -16 -21 -24 -15 -7 -38 -21 -51 -31 -13 -10 -27 -15 -32
-12 -5 3 -9 0 -9 -6 0 -6 -12 -16 -27 -22 -16 -7 -44 -22 -64 -35 -20 -12 -39
-20 -41 -17 -3 2 -13 -13 -24 -33 -10 -21 -22 -39 -26 -41 -4 -2 -5 -9 -2 -17
3 -7 0 -16 -5 -20 -6 -3 -9 -11 -6 -16 4 -5 1 -9 -6 -9 -7 0 -10 -3 -6 -6 3
-4 -3 -24 -13 -45 -11 -21 -20 -45 -20 -54 0 -8 -4 -15 -8 -15 -5 0 -9 -6 -9
-13 0 -12 -41 -109 -63 -149 -6 -10 -10 -25 -10 -33 0 -8 -4 -15 -10 -15 -5 0
-10 -6 -10 -14 0 -13 -72 -170 -95 -206 -5 -8 -10 -21 -11 -28 -1 -7 -11 -25
-20 -40 -10 -15 -19 -29 -19 -32 -3 -21 -18 -50 -26 -50 -5 0 -8 -3 -7 -7 3
-11 -53 -117 -63 -121 -5 -2 -7 -7 -4 -12 3 -5 -2 -16 -11 -24 -8 -9 -12 -16
-7 -16 4 0 1 -6 -7 -13 -8 -7 -16 -17 -17 -23 -3 -18 -75 -139 -85 -142 -4 -2
-6 -8 -2 -13 3 -5 0 -9 -6 -9 -6 0 -9 -4 -6 -9 3 -5 -1 -14 -9 -21 -8 -7 -15
-18 -15 -25 0 -7 -7 -15 -15 -19 -8 -3 -14 -9 -13 -13 4 -11 -124 -203 -134
-203 -4 0 -8 -6 -8 -13 0 -7 -11 -24 -25 -39 l-26 -28 -29 27 c-17 14 -30 30
-30 35 0 5 -11 21 -24 35 -14 15 -23 30 -21 34 3 4 -2 10 -11 13 -8 3 -13 10
-10 15 3 5 -1 12 -10 15 -8 3 -13 10 -10 15 3 5 -1 11 -9 15 -8 3 -15 12 -15
21 0 8 -5 15 -11 15 -5 0 -8 4 -5 9 4 5 2 11 -3 13 -12 4 -113 168 -104 168 5
0 3 4 -2 8 -21 14 -55 65 -49 73 3 5 1 9 -3 9 -5 0 -17 17 -28 38 -11 20 -22
39 -25 42 -3 3 -12 19 -20 35 -8 17 -22 42 -32 56 -10 14 -15 29 -11 33 3 3 1
6 -5 6 -7 0 -12 7 -12 15 0 8 -5 15 -11 15 -5 0 -8 4 -4 9 3 5 0 15 -7 23 -17
17 -91 164 -88 174 1 4 -3 10 -8 13 -10 6 -111 214 -175 361 -45 103 -55 130
-49 130 4 0 2 4 -4 8 -6 4 -23 41 -38 83 -27 73 -29 77 -69 89 -68 20 -254
115 -277 141 -3 3 -25 19 -50 36 -25 17 -56 40 -69 52 -13 12 -28 21 -33 21
-5 0 -6 5 -3 10 3 6 1 10 -6 10 -7 0 -29 18 -51 39 -21 22 -38 38 -38 35 0 -2
-26 25 -57 60 -32 35 -61 65 -64 65 -4 1 -5 -11 -3 -26z"/>
</g>
</svg>
